# xmcd
#
# Track frame offsets:
#	150
#	16157
#	29942
#	43385
#	59179
#	71112
#	82927
#	94151
#	109325
#	121624
#
# Disc length: 1826 seconds
#
# Revision: 0
# Processed by: cddbd v1.5.2PL0 Copyright (c) Steve Scherf et al.
# Submitted via: EasyCDDAExtractor 16.0.6.1
#
DISCID=8f07200a
DTITLE=Συλλογικός δίσκος - Λαϊκό τραγούδι 1954-1967, 1963-3
DYEAR=2008
DGENRE=Λαϊκή
TTITLE0=Παγιουμτζής Στράτος - Τρεις μάγκες, τρεις γεροντόμαγκες [Σταύρος Ξαρχά
TTITLE0=κος-Χρ. Στύππας]
TTITLE1=Ζαγοραίος Σπύρος - Μιά πεντάμορφη τσιγγάνα [Ν. Δεπάστας-Στράτος Βαλιάν
TTITLE1=ος]
TTITLE2=Μενιδιάτης Μιχάλης - Μην περιμένεις πια [Απόστολος Καλδάρας]
TTITLE3=Μενιδιάτης Μιχάλης - Στο 13 το κελί [Γιώργος Λαύκας]
TTITLE4=Ζαγοραίος Σπύρος-Ζαγοραίου Ζωή - Ντόλτσε βίτα [Θεόδωρος Δερβενιώτης-Κώ
TTITLE4=στας Βίρβος]
TTITLE5=Αναγνωστάκης Πέτρος - Δέκα συμβουλές [Θεόδωρος Δερβενιώτης-Κώστας Βίρβ
TTITLE5=ος]
TTITLE6=Μιχαλόπουλος Πάνος-Καλάκη Ρούλα - Νά 'χα ένα πορτοφόλι [Γιώργος Μανίσα
TTITLE6=λης-Κώστας Βίρβος]
TTITLE7=Αγγελόπουλος Μανώλης - Έφυγε κι ακόμη πάει [Παναγιώτης Πετσάς]
TTITLE8=Γαβαλάς Πάνος-Κούρτη Ρία - Λαϊκό τσα-τσά [Απόστολος Καλδάρας]
TTITLE9=Καζαντζίδης Στέλιος - Εγώ πονώ για σένα [Σ. Καζαντζίδης/Μαρινέλλα-Σ. Κ
TTITLE9=ορσαβίδης/Α. Παπαδάκης]
EXTD=
EXTT0=
EXTT1=
EXTT2=
EXTT3=
EXTT4=
EXTT5=
EXTT6=
EXTT7=
EXTT8=
EXTT9=
PLAYORDER=
